# xmcd CD database file
# 
# Track frame offsets:
# 	150
# 	13536
# 	28351
# 	40756
# 	54436
# 	69071
# 	83841
# 	99988
# 	116061
# 	128816
# 	139386
# 	149263
# 	159821
# 	171021
# 	181493
# 	192678
# 	207076
# 	217891
# 	230741
# 	243806
# 
# Disc length: 3470 seconds
# 
# Submitted via: Nero 6, 0, 0, 28
# 
# Revision: 0
# Processed by: cddbd v1.4PL0 Copyright (c) Steve Scherf et al.
#
DISCID=130d8c14
DTITLE=Various Artist - Country Roads
DYEAR=1900
DGENRE=
TTITLE0=Tammy Wynette - D-i-v-o-r-c-e
TTITLE1=George Jones - He Stopped Loving Her Today
TTITLE2=Kenny Rogers - Reuben James
TTITLE3=Willie Nelson and Leon Russel - Heartbreak Hotel
TTITLE4=Loretta Lynn - Coal Miners Daughter (live)
TTITLE5=Ernest Tubb& Marty Robbins - Rainbow At Midnight
TTITLE6=Brenda Lee - Comin' On Strong (live)
TTITLE7=Merle Haggard - It's Not Love (But It's Not Bad)
TTITLE8=The Gatlin Brothers - All The Gold In California
TTITLE9=Patsy Cline - Lovesick Blues
TTITLE10=Boots Randolph and Danny Davis - I Fall To Pieces
TTITLE11=The Everly Brothers - All I Have To Do Is Dream
TTITLE12=Conway Twitty - It's Only Make Believe
TTITLE13=Ferlin Husky - Wings Of A Dove
TTITLE14=Stella Parton - Danger Of A Stranger
TTITLE15=Frankie Laine - Mule Train
TTITLE16=Hank Locklin - Please Help Me I'm Failin'
TTITLE17=Hank Thompson - Wild Side Of Life
TTITLE18=Nancy Peppers - Only In My Dreams
TTITLE19=Cal Smith - Country Bumpkin
EXTD=
EXTT0=
EXTT1=
EXTT2=
EXTT3=
EXTT4=
EXTT5=
EXTT6=
EXTT7=
EXTT8=
EXTT9=
EXTT10=
EXTT11=
EXTT12=
EXTT13=
EXTT14=
EXTT15=
EXTT16=
EXTT17=
EXTT18=
EXTT19=
PLAYORDER=
